<?xml version="1.0" encoding="UTF-8" standalone="no"?><!DOCTYPE svg PUBLIC "-//W3C//DTD SVG 1.0//EN" "http://www.w3.org/TR/2001/REC-SVG-20010904/DTD/svg10.dtd"><!-- Generated by WinGraphviz version ver1.02.23, 08/01/2003 (08/04/2003)     For user: Drew   Title: G    Pages: 1 --><svg width="447px" height="276px" xmlns="http://www.w3.org/2000/svg"><g id="graph0" class="graph" style="font-family:Times New Roman;font-size:18.67;"><title>G</title><g id="node1" class="node"><title>1</title><ellipse cx="245" cy="39" rx="141" ry="24" style="fill:#b2dfee;stroke:#b2dfee;"/><text text-anchor="middle" x="245" y="45" style="font-family:Times New Roman;font-size:12.00;"><![CDATA[Drew.DependencyAnalyser.Tests]]></text></g><g id="node3" class="node"><title>3</title><ellipse cx="133" cy="135" rx="121" ry="24" style="fill:#b2dfee;stroke:#b2dfee;"/><text text-anchor="middle" x="133" y="141" style="font-family:Times New Roman;font-size:12.00;"><![CDATA[Drew.DependencyAnalyser]]></text></g><g id="edge2" class="edge"><title>1-&gt;3</title><path style="fill:none;stroke:black;" d="M217,63C202,75 185,90 169,103"/><polygon style="fill:black;stroke:black;" points="171,105 159,111 167,101 171,105"/></g><g id="node5" class="node"><title>17</title><ellipse cx="358" cy="135" rx="80" ry="24" style="fill:#b2dfee;stroke:#b2dfee;"/><text text-anchor="middle" x="358" y="141" style="font-family:Times New Roman;font-size:12.00;"><![CDATA[nunit.framework]]></text></g><g id="edge4" class="edge"><title>1-&gt;17</title><path style="fill:none;stroke:black;" d="M273,63C288,75 306,91 322,105"/><polygon style="fill:black;stroke:black;" points="324,102 332,113 320,106 324,102"/></g><g id="node7" class="node"><title>15</title><ellipse cx="133" cy="231" rx="126" ry="24" style="fill:#b2dfee;stroke:#b2dfee;"/><text text-anchor="middle" x="133" y="237" style="font-family:Times New Roman;font-size:12.00;"><![CDATA[Interop.WINGRAPHVIZLib]]></text></g><g id="edge6" class="edge"><title>3-&gt;15</title><path style="fill:none;stroke:black;" d="M133,159C133,170 133,182 133,194"/><polygon style="fill:black;stroke:black;" points="137,194 133,207 130,194 137,194"/></g></g></svg>