<?xml version="1.0" encoding="UTF-8" standalone="no"?><!DOCTYPE svg PUBLIC "-//W3C//DTD SVG 1.0//EN" "http://www.w3.org/TR/2001/REC-SVG-20010904/DTD/svg10.dtd"><!-- Generated by WinGraphviz version ver1.02.17, 03/01/2003 (03/01/2003)     For user: dnoakes   Title: G    Pages: 1 --><svg width="258px" height="276px" xmlns="http://www.w3.org/2000/svg"><g id="graph0" class="graph" style="font-family:Times New Roman;font-size:18.67;"><title>G</title><g id="node1" class="node"><title>1</title><ellipse cx="132" cy="39" rx="88" ry="24" style="fill:#b2dfee;stroke:#b2dfee;"/><text text-anchor="middle" x="132" y="45" style="font-family:Times New Roman;"><![CDATA[Drew.Controls.Map]]></text></g><g id="node3" class="node"><title>9</title><ellipse cx="65" cy="135" rx="58" ry="24" style="fill:#b2dfee;stroke:#b2dfee;"/><text text-anchor="middle" x="65" y="141" style="font-family:Times New Roman;"><![CDATA[Drew.Types]]></text></g><g id="edge2" class="edge"><title>1-&gt;9</title><path style="fill:none;stroke:black;" d="M116,63C108,75 97,89 89,101"/><polygon style="fill:black;stroke:black;" points="92,102 81,111 86,98 92,102"/></g><g id="node5" class="node"><title>11</title><ellipse cx="198" cy="135" rx="50" ry="24" style="fill:#b2dfee;stroke:#b2dfee;"/><text text-anchor="middle" x="198" y="141" style="font-family:Times New Roman;"><![CDATA[Drew.Util]]></text></g><g id="edge4" class="edge"><title>1-&gt;11</title><path style="fill:none;stroke:black;" d="M147,63C155,75 166,90 174,102"/><polygon style="fill:black;stroke:black;" points="177,99 182,113 171,103 177,99"/></g><g id="node7" class="node"><title>10</title><ellipse cx="132" cy="231" rx="80" ry="24" style="fill:#b2dfee;stroke:#b2dfee;"/><text text-anchor="middle" x="132" y="237" style="font-family:Times New Roman;"><![CDATA[nunit.framework]]></text></g><g id="edge6" class="edge"><title>9-&gt;10</title><path style="fill:none;stroke:black;" d="M81,158C89,170 100,185 108,197"/><polygon style="fill:black;stroke:black;" points="110,194 116,207 105,198 110,194"/></g><g id="edge8" class="edge"><title>11-&gt;10</title><path style="fill:none;stroke:black;" d="M182,158C174,170 163,185 155,197"/><polygon style="fill:black;stroke:black;" points="158,198 147,207 153,194 158,198"/></g></g></svg>